<?xml version="1.0" encoding="utf-8"?>
<!-- Generator: Adobe Illustrator 15.0.0, SVG Export Plug-In . SVG Version: 6.00 Build 0)  -->
<!DOCTYPE svg PUBLIC "-//W3C//DTD SVG 1.0//EN" "http://www.w3.org/TR/2001/REC-SVG-20010904/DTD/svg10.dtd">
<svg version="1.0" id="Layer_1" xmlns="http://www.w3.org/2000/svg" xmlns:xlink="http://www.w3.org/1999/xlink" x="0px" y="0px"
	 width="112px" height="96px" viewBox="0 0 112 96" enable-background="new 0 0 112 96" xml:space="preserve">
<path fill="#A82424" d="M109.2,16.544c-2.502-2.047-5.125-0.944-5.998,0.154c-2.609,3.283-5.343,5.808-8.037,7.448
	C87.194,8.599,69.128-1.042,49.588,1.438c-4.711,0.598-9.161,1.862-13.26,3.667c-1.018-1.263-2.451-2.11-4.164-2.424
	c-0.2-0.037-0.526-0.082-0.941-0.091c-1.608-0.035-3.226,0.495-4.555,1.493c-2.283,1.713-3.631,4.624-4.01,8.65l-0.249,1.862
	c-4.8,4.803-8.397,10.607-10.409,16.959c-4.166,1.985-7.482,2.366-7.618,2.38c-2.464,0.227-3.566,2.178-3.357,4.646
	c0.196,2.305,1.358,4.313,3.67,4.364c0.161,0.003,0.324-0.002,0.482-0.015c0.322-0.028,2.226-0.221,5.015-1.038
	c-0.078,2.089,0.013,4.208,0.284,6.342c1.48,11.663,8.046,21.521,17.388,27.945c-2.17,1.318-3.884,2.785-5.112,4.387
	c-1.901,2.479-2.293,4.804-2.288,6.317c0.006,1.521,0.408,2.993,1.162,4.261c0.813,1.366,1.973,2.395,3.353,2.975
	c1.25,0.525,2.486,0.805,3.672,0.83c1.443,0.031,2.803-0.304,4.042-0.998c2.075-1.162,3.573-3.159,4.582-6.104
	c0.726-2.122,1.078-4.4,1.359-6.24c6.591,2.277,13.886,3.122,21.401,2.168c9.688-1.229,18.274-5.259,24.947-11.078
	c0.76,0.002,1.525,0.009,2.298,0.025c4.475,0.097,8.942,0.439,13.279,1.019c0.166,0.023,0.335,0.036,0.501,0.039
	c2.564,0.052,3.959-1.689,4.265-3.972c0.159-1.195,0.006-2.594-0.788-3.502c-0.871-0.997-1.587-1.355-2.783-1.515
	c-2.978-0.398-6.012-0.681-9.063-0.87c5.182-7.816,7.688-17.211,6.455-26.939c-0.185-1.45-0.449-2.871-0.785-4.263
	c4.155-2.184,8.149-5.67,11.91-10.401C111.021,21.373,111.814,18.682,109.2,16.544z"/>
<g>
	<g>
		<path fill="#FFFFFF" d="M101.456,67.134c-8.739-1.167-17.762-1.414-26.819-0.735c-7.242,0.543-14.522,1.676-21.639,3.368
			c-7.638,1.816-13.384,3.862-16.671,5.167c0.122-1.035,0.268-2.922,0.392-3.993c0.17-0.037,0.342-0.08,0.515-0.127
			c3.297-0.899,5.405-3.068,6.098-6.272c0.099-0.398,0.605-2.698-0.536-4.381c-0.422-0.622-1.24-1.402-2.742-1.585
			c-0.004,0-0.008-0.001-0.012-0.001c-0.175-0.02-1.753-0.159-3.2,1.04c-1.257,1.041-1.982,2.712-2.155,4.967
			c-0.127,1.11-0.284,2.477-0.451,3.92c-0.668,0.021-1.144-0.027-1.25-0.039c-2.593-0.395-4.387-1.418-5.334-3.041
			c-1.794-3.077-0.233-7.501-0.112-7.833c1.281-2.938,3.057-5.168,5.285-6.639c0.071,0.187,0.148,0.363,0.231,0.534
			c0.63,1.3,1.499,2.562,3.576,2.988c0.209,0.042,2.087,0.383,3.553-0.659c0.578-0.411,1.308-1.2,1.503-2.624
			c0.033-0.237,0.212-1.896-1.013-3.189c-0.987-1.043-2.518-1.479-4.549-1.293c-0.009,0-0.019,0.001-0.027,0.003
			c-0.07,0.007-0.51,0.062-1.194,0.259c-0.08-2.35,0.241-5.688,0.968-10.25c0.395-2.48,0.021-4.397-1.113-5.697
			c-1.227-1.405-2.862-1.532-3.287-1.536c-1.515-0.107-3.473,0.304-5.29,2.309l0.554-5.04c2.236-2.642,4.157-5.645,5.731-8.963
			c0.105-0.209,0.931-1.861,1.598-3.871c1.026-3.093,1.151-5.355,0.381-6.916c-0.533-1.08-1.477-1.773-2.729-2.003
			c-0.225-0.041-1.629-0.241-3.047,0.825c-1.555,1.167-2.488,3.351-2.774,6.491l-1.777,13.283c-2.812,3.175-6.13,5.739-9.929,7.667
			c-5.174,2.626-9.355,3.021-9.396,3.025C4.038,36.357,3.785,37,3.849,37.755c0.064,0.755,0.422,1.34,1.179,1.275
			c0.188-0.016,4.659-0.422,10.287-3.252c2.98-1.499,5.734-3.401,8.2-5.666l-2.633,21.648c-0.101,0.753,0.428,1.443,1.18,1.544
			c0.052,0.008,0.103,0.011,0.154,0.013c0.691,0.015,1.633-0.388,1.772-1.537l1.269-11.548c0.178-0.805,0.615-2.53,1.415-4.197
			c1.278-2.667,2.839-3.946,4.64-3.807c0.058,0.004,0.074,0.007,0.127,0.004c0.104,0.004,0.795,0.051,1.271,0.617
			c0.548,0.652,0.705,1.84,0.45,3.436c-0.685,4.293-1.016,7.562-1.015,9.991c0,0.657,0.025,1.262,0.075,1.821
			c-2.314,1.29-5.185,3.752-7.213,8.427c-0.008,0.017-0.014,0.032-0.021,0.05c-0.093,0.238-2.23,5.883,0.285,10.216
			c1.387,2.39,3.854,3.867,7.328,4.392c0.012,0.002,0.023,0.004,0.036,0.005c0.042,0.005,0.533,0.064,1.284,0.06
			c-0.172,1.479-0.358,3.703-0.502,4.917c-0.094,0.043-0.16,0.074-0.197,0.092c-8.281,3.56-9.503,7.695-9.496,9.846
			c0.008,1.955,1.048,3.704,2.59,4.352c0.889,0.373,1.732,0.569,2.525,0.586c0.877,0.019,1.693-0.181,2.439-0.599
			c3.092-1.731,3.834-6.578,4.377-10.116c0.025-0.166,0.05-0.329,0.075-0.486c0.036-0.231,0.118-0.88,0.228-1.781
			c2.763-1.155,9.011-3.555,17.678-5.617c10.959-2.605,28.088-5.169,47.459-2.581c0.752,0.1,1.119-0.482,1.22-1.233
			C102.413,67.872,102.208,67.234,101.456,67.134z M37.42,64.868c0.002-0.019,0.003-0.037,0.005-0.054
			c0.119-1.579,0.57-2.682,1.307-3.187c0.455-0.312,0.903-0.323,1.009-0.321h0.01c0.551,0.074,0.709,0.306,0.769,0.394
			c0.385,0.561,0.263,1.713,0.146,2.177c-0.005,0.021-0.011,0.042-0.015,0.062c-0.498,2.337-2.026,3.493-3.59,4.057
			C37.257,66.287,37.401,65.028,37.42,64.868z M36.401,49.44c1.091-0.096,1.896,0.058,2.266,0.435
			c0.343,0.349,0.302,0.899,0.297,0.945c-0.067,0.48-0.241,0.657-0.367,0.749c-0.42,0.304-1.185,0.251-1.428,0.207
			c-0.874-0.182-1.177-0.532-1.642-1.49c-0.083-0.171-0.157-0.358-0.223-0.563C35.921,49.516,36.329,49.45,36.401,49.44z
			 M28.624,12.653c0.003-0.02,0.005-0.041,0.007-0.061c0.268-3.002,1.136-4.123,1.63-4.522c0.416-0.338,0.792-0.367,0.933-0.364
			c0.021,0.001,0.036,0.002,0.046,0.002c0.475,0.092,0.638,0.3,0.742,0.511c0.775,1.57-0.687,5.823-1.971,8.341
			c-0.006,0.012-0.012,0.025-0.018,0.038c-0.757,1.598-1.592,3.109-2.503,4.532L28.624,12.653z M33.012,79.416
			c-0.025,0.159-0.05,0.323-0.075,0.492c-0.405,2.64-1.082,7.059-3.004,8.135c-0.24,0.135-0.969,0.543-2.556-0.124
			c-0.348-0.146-0.902-0.771-0.906-1.828c-0.008-2.243,2.413-4.706,6.549-6.724C33.017,79.386,33.015,79.401,33.012,79.416z
			 M54.323,54.965c0.194-0.808,0.785-3.267-0.977-4.568c-0.763-0.564-2.39-1.221-4.711,0.731c-1.016,0.855-2.414,2.825-3.247,5.3
			c-0.691,2.054-1.198,5.087,0.312,7.867c0.886,1.632,2.724,2.6,4.838,2.646c0.539,0.012,1.097-0.036,1.66-0.149
			c0.01-0.002,0.021-0.004,0.031-0.006l0.213-0.048c5.917-1.253,9.013-7.488,10.583-12.64c0.747-0.156,1.499-0.405,2.243-0.744
			c0.309-0.142,0.616-0.298,0.92-0.468c-0.107,0.396-0.209,0.803-0.303,1.215c-1.036,4.575-0.442,7.475,1.765,8.617
			c1.195,0.619,2.466,0.668,3.676,0.144c1.662-0.72,3.178-2.479,4.633-5.375c0.813,2.234,2.426,3.092,3.752,3.404
			c2.155,0.509,4.467,0.15,6.512-1.01c1.92-1.088,3.483-2.801,4.404-4.818c0.954-2.093,1.15-4.332,0.566-6.475
			c-0.647-2.374-2.262-4.545-4.67-6.278c-0.615-0.443-1.475-0.304-1.918,0.312c-0.443,0.616-0.304,1.474,0.312,1.917
			c3.529,2.541,4.729,6.049,3.208,9.383c-1.439,3.155-4.785,5.002-7.783,4.295c-0.746-0.177-1.259-0.572-1.611-1.246
			c-0.899-1.716-0.51-4.592-0.121-6.338c0.155-0.505,0.294-0.981,0.417-1.42c0.025-0.088,0.044-0.159,0.057-0.22
			c0.186-0.834-0.332-1.31-0.495-1.436c-0.444-0.342-1.055-0.381-1.537-0.096c-0.515,0.303-0.641,0.746-0.849,1.482
			c-0.069,0.241-0.157,0.575-0.25,0.98c-0.741,2.403-1.558,4.527-2.389,6.205c-1.52,3.065-2.738,3.954-3.33,4.21
			c-0.452,0.195-0.858,0.177-1.32-0.062c-0.884-0.458-1.021-2.581-0.354-5.539c0.625-2.778,1.725-5.385,1.735-5.409
			c0.264-0.621,0.037-1.343-0.534-1.701c-0.572-0.358-1.32-0.249-1.765,0.259c-1.257,1.435-2.701,2.493-4.155,3.092
			c0.02-0.087,0.038-0.174,0.058-0.259c0.508-2.37-0.921-4.071-2.595-4.529c-0.864-0.236-2.23-0.145-3.328,0.593
			c-0.929,0.625-1.495,1.574-1.638,2.747c-0.323,2.649,1.44,4.243,3.214,4.604c0.182,0.037,0.365,0.067,0.551,0.091
			c-0.633,1.886-1.385,3.56-2.231,4.948c-1.673,2.749-3.694,4.39-6.004,4.877c-0.006,0.001-0.011,0.003-0.017,0.004L51.646,64.1
			c-1.815,0.356-3.102-0.326-3.53-1.116c-0.13-0.239-0.237-0.482-0.324-0.729C49.606,61.409,53.303,59.208,54.323,54.965z
			 M60.099,51.44c-0.446-0.092-1.175-0.416-1.033-1.576c0.06-0.49,0.281-0.69,0.443-0.799c0.293-0.198,0.665-0.248,0.897-0.243
			c0.076,0.001,0.137,0.009,0.175,0.02c0.259,0.071,0.837,0.339,0.63,1.301c-0.101,0.474-0.209,0.939-0.324,1.396
			C60.62,51.525,60.357,51.492,60.099,51.44z M51.65,54.322c-0.605,2.522-2.645,4.117-4.122,4.969
			c0.091-0.726,0.269-1.406,0.464-1.986c0.623-1.854,1.708-3.481,2.411-4.073c0.542-0.456,0.984-0.66,1.202-0.655
			c0.045,0.001,0.081,0.012,0.106,0.029C51.832,52.695,51.915,53.225,51.65,54.322z M78.251,46.006
			c1.381,0.173,2.138-0.835,2.28-1.976c0.143-1.141-0.382-1.983-1.763-2.156c-1.381-0.173-2.016,0.524-2.158,1.665
			C76.467,44.68,76.87,45.833,78.251,46.006z M107.502,17.818c-0.594-0.472-1.253-0.528-1.725,0.066
			c-3.908,4.917-8.16,8.329-12.298,9.866c-2.312,0.859-4.217,1.021-5.696,0.896c-0.025-1.459-0.33-2.858-0.913-4.079
			c-0.959-2.008-2.534-3.311-4.434-3.669c-0.334-0.063-0.676-0.095-1.016-0.095c-1.722-0.001-3.432,0.803-4.815,2.265
			c-1.311,1.385-2.247,3.288-2.636,5.356c-0.429,2.277-0.175,4.558,0.717,6.422c0.166,0.348,0.357,0.667,0.559,0.971
			c-1.224,1.248-2.53,1.869-3.794,1.766c-1.295-0.106-2.593-0.999-3.648-2.611c1.498-2.978,2.638-6.635,3.399-10.923
			c0.744-4.188,1.048-7.865,0.879-10.636c-0.17-2.779-0.805-4.609-1.89-5.439c-0.74-0.568-1.656-0.662-2.514-0.259
			c-1.32,0.62-2.437,2.38-3.319,5.232c-0.892,2.876-1.449,6.64-1.614,10.882c-0.169,4.374,0.495,8.225,1.926,11.172
			c-0.096,0.262-0.191,0.457-0.296,0.637c-0.005,0.008-0.01,0.015-0.015,0.022c-1.505,2.08-3.21,3.145-4.844,3.013
			c-1.295-0.106-2.594-0.999-3.648-2.611c1.498-2.978,2.637-6.635,3.399-10.923c0.744-4.188,1.048-7.866,0.879-10.636
			c-0.17-2.779-0.805-4.609-1.889-5.439c-0.74-0.567-1.657-0.662-2.515-0.26c-1.32,0.62-2.437,2.381-3.32,5.232
			c-0.891,2.876-1.449,6.64-1.613,10.883c-0.17,4.373,0.495,8.224,1.925,11.171c-1.782,3.028-3.707,4.497-5.164,5.209
			c-0.767,0.375-1.405,0.541-1.821,0.613c-1.973,0.341-3.378-0.394-3.85-1.22c-0.141-0.247-0.258-0.498-0.354-0.754
			c1.758-0.879,5.836-3.363,6.644-7.816c0.406-2.237,0.042-3.79-1.084-4.614c-1.3-0.954-3.153-0.629-4.836,0.847
			c-1.033,0.906-2.438,2.978-3.248,5.562c-0.671,2.143-1.131,5.293,0.491,8.137c0.963,1.689,2.993,2.687,5.292,2.688
			c0.462,0,0.935-0.04,1.413-0.122c0.54-0.094,1.155-0.252,1.819-0.511c1.713-0.667,3.758-2.003,5.729-4.624
			c0.204-0.27,0.402-0.55,0.596-0.838c1.385,1.65,3.081,2.612,4.93,2.763c2.459,0.202,5.044-1.199,7.059-3.727
			c0.14,0.115,0.249,0.22,0.36,0.328c1.304,1.369,2.847,2.173,4.517,2.309c2.096,0.172,4.151-0.731,5.962-2.566
			c0.592,0.37,1.239,0.628,1.931,0.759c0.334,0.062,0.675,0.095,1.015,0.095c1.723,0.001,3.433-0.803,4.816-2.265
			c1.219-1.288,2.093-3.03,2.525-4.93c0.116-0.002,0.237-0.009,0.356-0.014c0.17,0.011,0.34,0.025,0.513,0.029
			c1.931,0.042,4-0.327,6.091-1.104c4.673-1.736,9.213-5.347,13.492-10.732C108.401,19,108.096,18.29,107.502,17.818z
			 M41.644,34.741c0.611-1.952,1.712-3.681,2.438-4.318c0.632-0.555,1.139-0.711,1.328-0.711c0.03,0,0.051,0.004,0.065,0.011
			c0.029,0.042,0.275,0.457,0.011,1.911c-0.481,2.656-2.76,4.44-4.3,5.366C41.254,36.176,41.438,35.399,41.644,34.741z
			 M54.372,32.703c-0.609-2.065-0.935-4.639-0.817-7.675c0.198-5.111,0.933-8.395,1.515-10.248c0.651-2.074,1.313-3.019,1.659-3.35
			c0.507,0.855,1.4,4.404-0.168,13.23C55.982,27.914,55.223,30.557,54.372,32.703z M66.307,31.613
			c-0.608-2.066-0.934-4.639-0.816-7.676c0.198-5.112,0.933-8.394,1.515-10.248c0.65-2.074,1.314-3.019,1.659-3.35
			c0.507,0.856,1.401,4.404-0.168,13.229C67.918,26.824,67.159,29.467,66.307,31.613z M80.138,35.863
			c-0.171,0-0.342-0.017-0.51-0.048c-2.226-0.419-3.581-3.571-2.958-6.881c0.219-1.165,0.668-2.227,1.252-3.099
			c0.1,0.96,0.638,2.161,2.219,3.452c0,0,1.501,1.384,4.559,1.922C83.958,33.868,82.059,35.864,80.138,35.863z M80.923,24.644
			c0,0,0.214-1.09,1.343-0.954c1.554,0.507,2.611,2.39,2.751,4.659C83.666,28.074,80.945,27.202,80.923,24.644z"/>
	</g>
</g>
</svg>
