<?xml version="1.0" encoding="utf-8"?>
<!-- Generator: Adobe Illustrator 15.0.0, SVG Export Plug-In . SVG Version: 6.00 Build 0)  -->
<!DOCTYPE svg PUBLIC "-//W3C//DTD SVG 1.0//EN" "http://www.w3.org/TR/2001/REC-SVG-20010904/DTD/svg10.dtd">
<svg version="1.0" id="Layer_1" xmlns="http://www.w3.org/2000/svg" xmlns:xlink="http://www.w3.org/1999/xlink" x="0px" y="0px"
	 width="162px" height="138px" viewBox="0 0 162 138" enable-background="new 0 0 162 138" xml:space="preserve">
<path fill="#A82424" d="M158.006,23.469c-3.622-2.962-7.419-1.366-8.682,0.224c-3.777,4.752-7.733,8.406-11.634,10.781
	c-11.538-22.506-37.688-36.46-65.972-32.871c-6.82,0.866-13.26,2.695-19.194,5.308c-1.473-1.829-3.548-3.054-6.027-3.509
	c-0.29-0.053-0.761-0.119-1.362-0.131c-2.328-0.051-4.67,0.717-6.594,2.161c-3.304,2.48-5.256,6.692-5.804,12.521l-0.36,2.695
	C25.43,27.599,20.224,36,17.311,45.194c-6.029,2.874-10.83,3.424-11.026,3.445c-3.566,0.328-5.162,3.152-4.859,6.725
	c0.283,3.337,1.966,6.244,5.312,6.316c0.233,0.005,0.469-0.002,0.699-0.022c0.466-0.04,3.222-0.319,7.259-1.502
	c-0.112,3.024,0.02,6.091,0.412,9.18c2.142,16.881,11.646,31.149,25.169,40.45c-3.141,1.907-5.622,4.03-7.399,6.349
	c-2.752,3.59-3.319,6.954-3.311,9.145c0.009,2.201,0.59,4.333,1.681,6.167c1.177,1.978,2.856,3.467,4.854,4.307
	c1.81,0.76,3.599,1.164,5.316,1.201c2.089,0.045,4.058-0.44,5.851-1.445c3.003-1.682,5.172-4.572,6.631-8.835
	c1.051-3.07,1.56-6.369,1.967-9.031c9.54,3.296,20.1,4.519,30.978,3.138c14.021-1.779,26.451-7.612,36.109-16.036
	c1.101,0.003,2.208,0.013,3.327,0.037c6.477,0.141,12.943,0.637,19.221,1.475c0.24,0.033,0.484,0.052,0.726,0.057
	c3.712,0.074,5.73-2.445,6.172-5.749c0.231-1.73,0.009-3.754-1.14-5.068c-1.262-1.443-2.297-1.963-4.028-2.193
	c-4.311-0.576-8.703-0.985-13.12-1.26c7.5-11.313,11.13-24.913,9.344-38.993c-0.267-2.099-0.649-4.156-1.137-6.17
	c6.016-3.162,11.797-8.208,17.239-15.055C160.643,30.458,161.79,26.563,158.006,23.469z"/>
<g>
	<g>
		<path fill="#FFFFFF" d="M78.404,80.193c0.281-1.169,1.135-4.728-1.414-6.612c-1.105-0.816-3.46-1.767-6.819,1.059
			c-1.471,1.238-3.495,4.09-4.7,7.672c-1,2.973-1.734,7.362,0.451,11.388c1.283,2.361,3.943,3.763,7.003,3.829
			c0.78,0.017,1.587-0.053,2.403-0.216c0.015-0.003,0.03-0.006,0.045-0.01l0.308-0.068c8.564-1.814,13.046-10.84,15.32-18.296
			c1.081-0.226,2.169-0.586,3.246-1.077c0.447-0.205,0.892-0.431,1.331-0.677c-0.154,0.572-0.302,1.161-0.438,1.758
			c-1.5,6.623-0.641,10.819,2.555,12.474c1.729,0.896,3.569,0.967,5.32,0.208c2.405-1.042,4.6-3.588,6.705-7.78
			c1.179,3.234,3.512,4.475,5.432,4.928c3.119,0.736,6.466,0.217,9.426-1.462c2.778-1.575,5.041-4.054,6.374-6.975
			c1.382-3.029,1.665-6.27,0.82-9.372c-0.937-3.436-3.273-6.579-6.759-9.087c-0.892-0.642-2.135-0.44-2.776,0.452
			c-0.643,0.891-0.439,2.134,0.452,2.776c5.108,3.678,6.845,8.755,4.644,13.581c-2.084,4.568-6.927,7.24-11.267,6.217
			c-1.08-0.255-1.821-0.828-2.332-1.803c-1.302-2.484-0.737-6.646-0.175-9.175c0.224-0.73,0.425-1.42,0.604-2.055
			c0.036-0.127,0.062-0.23,0.082-0.318c0.268-1.207-0.481-1.895-0.718-2.077c-0.643-0.496-1.525-0.552-2.225-0.139
			c-0.745,0.438-0.927,1.081-1.229,2.146c-0.1,0.35-0.228,0.832-0.361,1.419c-1.072,3.479-2.255,6.554-3.458,8.982
			c-2.199,4.437-3.964,5.723-4.82,6.094c-0.653,0.282-1.242,0.255-1.91-0.091c-1.28-0.663-1.479-3.736-0.514-8.019
			c0.905-4.021,2.496-7.793,2.512-7.829c0.382-0.899,0.055-1.943-0.773-2.462s-1.91-0.361-2.554,0.375
			c-1.819,2.077-3.91,3.608-6.015,4.476c0.028-0.126,0.056-0.252,0.083-0.375c0.735-3.43-1.332-5.893-3.755-6.555
			c-1.252-0.342-3.229-0.209-4.818,0.858c-1.344,0.904-2.164,2.278-2.371,3.976c-0.468,3.834,2.083,6.141,4.652,6.662
			c0.264,0.054,0.529,0.098,0.798,0.133c-0.916,2.729-2.005,5.152-3.229,7.162c-2.422,3.979-5.347,6.354-8.692,7.06
			c-0.008,0.001-0.016,0.003-0.024,0.005l-0.297,0.066c-2.627,0.517-4.49-0.473-5.11-1.615c-0.188-0.347-0.343-0.698-0.469-1.056
			C71.577,89.521,76.928,86.336,78.404,80.193z M86.765,75.092c-0.646-0.132-1.7-0.602-1.495-2.281
			c0.086-0.709,0.407-0.999,0.641-1.156c0.425-0.286,0.964-0.359,1.3-0.352c0.109,0.002,0.197,0.013,0.253,0.028
			c0.374,0.103,1.212,0.49,0.912,1.883c-0.146,0.686-0.303,1.359-0.47,2.02C87.52,75.215,87.139,75.168,86.765,75.092z
			 M74.536,79.264c-0.876,3.651-3.829,5.959-5.966,7.192c0.131-1.051,0.389-2.035,0.672-2.876c0.902-2.682,2.472-5.039,3.49-5.896
			c0.785-0.66,1.424-0.955,1.74-0.948c0.065,0.002,0.117,0.017,0.153,0.043C74.799,76.908,74.918,77.675,74.536,79.264z
			 M146.628,97.809c-12.649-1.689-25.71-2.048-38.82-1.065c-10.482,0.786-21.021,2.427-31.321,4.876
			c-11.055,2.629-19.372,5.591-24.13,7.479c0.176-1.499,0.387-4.23,0.567-5.78c0.246-0.055,0.496-0.116,0.746-0.185
			c4.772-1.301,7.823-4.44,8.826-9.079c0.144-0.576,0.876-3.905-0.776-6.341c-0.61-0.9-1.794-2.029-3.968-2.294
			c-0.006,0-0.012-0.001-0.018-0.001c-0.253-0.029-2.538-0.23-4.632,1.505c-1.819,1.507-2.868,3.926-3.12,7.189
			c-0.184,1.606-0.411,3.585-0.653,5.674c-0.967,0.029-1.655-0.039-1.809-0.057c-3.753-0.571-6.351-2.053-7.721-4.402
			c-2.596-4.454-0.337-10.857-0.162-11.338c1.854-4.252,4.425-7.48,7.65-9.608c0.103,0.27,0.214,0.525,0.334,0.773
			c0.912,1.881,2.169,3.707,5.176,4.325c0.303,0.061,3.021,0.554,5.143-0.954c0.837-0.596,1.894-1.738,2.176-3.799
			c0.048-0.343,0.307-2.744-1.466-4.617c-1.429-1.51-3.645-2.14-6.585-1.871c-0.013,0-0.026,0.002-0.04,0.004
			c-0.101,0.01-0.738,0.089-1.729,0.375c-0.115-3.401,0.349-8.232,1.401-14.835c0.572-3.591,0.03-6.365-1.611-8.247
			c-1.775-2.035-4.143-2.217-4.758-2.223c-2.193-0.156-5.026,0.44-7.657,3.342l0.801-7.294c3.237-3.825,6.017-8.171,8.295-12.974
			c0.153-0.303,1.347-2.694,2.312-5.604c1.486-4.477,1.667-7.751,0.552-10.011c-0.771-1.563-2.137-2.566-3.951-2.899
			c-0.325-0.059-2.357-0.349-4.411,1.193c-2.251,1.689-3.602,4.851-4.015,9.396L34.684,37.69
			c-4.071,4.596-8.873,8.307-14.372,11.097c-7.489,3.801-13.541,4.373-13.601,4.378c-1.092,0.095-1.459,1.024-1.366,2.117
			c0.093,1.094,0.612,1.94,1.707,1.847c0.271-0.023,6.743-0.612,14.889-4.708c4.313-2.169,8.3-4.923,11.87-8.201l-3.812,31.336
			c-0.146,1.089,0.619,2.089,1.708,2.234c0.075,0.011,0.149,0.016,0.223,0.018c1,0.021,2.363-0.561,2.565-2.224l1.837-16.724
			c0.259-1.17,0.894-3.663,2.046-6.067c1.85-3.86,4.11-5.712,6.717-5.51c0.084,0.007,0.107,0.011,0.184,0.006
			c0.15,0.006,1.15,0.075,1.84,0.894c0.794,0.944,1.02,2.664,0.652,4.973c-0.991,6.214-1.471,10.945-1.469,14.462
			c0,0.951,0.036,1.827,0.108,2.637c-3.35,1.866-7.505,5.43-10.441,12.196c-0.011,0.024-0.021,0.048-0.03,0.073
			c-0.134,0.345-3.228,8.515,0.412,14.786c2.008,3.46,5.578,5.599,10.607,6.357c0.017,0.002,0.034,0.005,0.051,0.007
			c0.062,0.007,0.771,0.093,1.859,0.086c-0.249,2.141-0.518,5.36-0.727,7.117c-0.136,0.062-0.231,0.107-0.285,0.133
			C35.87,116.164,34.1,122.15,34.111,125.263c0.011,2.831,1.518,5.362,3.749,6.3c1.287,0.539,2.507,0.823,3.654,0.848
			c1.27,0.027,2.45-0.262,3.53-0.866c4.476-2.507,5.55-9.521,6.335-14.644c0.037-0.24,0.073-0.476,0.108-0.703
			c0.052-0.335,0.171-1.274,0.329-2.578c4-1.673,13.044-5.146,25.589-8.131c15.863-3.771,40.657-7.482,68.696-3.736
			c1.088,0.145,1.62-0.698,1.766-1.786C148.014,98.877,147.717,97.953,146.628,97.809z M53.938,94.528
			c0.003-0.026,0.005-0.053,0.007-0.078c0.171-2.285,0.825-3.881,1.892-4.612c0.658-0.452,1.308-0.467,1.46-0.464h0.014
			c0.798,0.107,1.026,0.441,1.113,0.568c0.557,0.812,0.381,2.479,0.211,3.151c-0.008,0.029-0.016,0.061-0.022,0.091
			c-0.72,3.382-2.933,5.057-5.196,5.872C53.702,96.583,53.911,94.76,53.938,94.528z M52.462,72.197
			c1.58-0.139,2.744,0.083,3.28,0.629c0.496,0.505,0.437,1.302,0.431,1.368c-0.097,0.696-0.349,0.952-0.531,1.084
			c-0.609,0.44-1.715,0.364-2.066,0.301c-1.265-0.263-1.704-0.771-2.376-2.158c-0.119-0.247-0.227-0.518-0.323-0.814
			C51.768,72.306,52.359,72.212,52.462,72.197z M41.205,18.948c0.004-0.029,0.007-0.058,0.01-0.087
			c0.388-4.346,1.645-5.967,2.36-6.546c0.603-0.489,1.146-0.531,1.351-0.527c0.029,0.001,0.052,0.002,0.066,0.003
			c0.688,0.133,0.923,0.434,1.074,0.74c1.122,2.272-0.994,8.428-2.854,12.073c-0.009,0.018-0.018,0.037-0.026,0.055
			c-1.096,2.313-2.304,4.5-3.623,6.559L41.205,18.948z M47.558,115.586c-0.036,0.23-0.072,0.469-0.109,0.713
			c-0.586,3.821-1.566,10.217-4.348,11.774c-0.347,0.195-1.403,0.786-3.7-0.179c-0.504-0.212-1.306-1.117-1.312-2.647
			c-0.012-3.246,3.492-6.812,9.479-9.731C47.564,115.542,47.561,115.565,47.558,115.586z M113.039,67.226
			c1.999,0.25,3.095-1.208,3.301-2.859c0.207-1.652-0.553-2.871-2.552-3.122c-1.998-0.25-2.917,0.758-3.124,2.41
			C110.457,65.307,111.041,66.976,113.039,67.226z M155.38,26.425c-0.86-0.684-1.813-0.764-2.497,0.096
			c-5.656,7.117-11.812,12.055-17.801,14.281c-3.347,1.244-6.104,1.478-8.246,1.296c-0.035-2.112-0.477-4.138-1.32-5.904
			c-1.389-2.907-3.668-4.793-6.418-5.311c-0.483-0.091-0.978-0.137-1.47-0.137c-2.492-0.002-4.968,1.163-6.971,3.279
			c-1.896,2.004-3.252,4.758-3.814,7.753c-0.621,3.295-0.253,6.597,1.037,9.295c0.24,0.504,0.517,0.965,0.809,1.406
			c-1.771,1.806-3.662,2.705-5.491,2.557c-1.875-0.153-3.754-1.445-5.281-3.779c2.168-4.311,3.817-9.604,4.92-15.811
			c1.077-6.062,1.518-11.385,1.272-15.395c-0.245-4.022-1.165-6.671-2.734-7.873c-1.072-0.822-2.398-0.958-3.64-0.375
			c-1.911,0.898-3.526,3.446-4.805,7.573c-1.29,4.164-2.098,9.611-2.336,15.752c-0.245,6.331,0.717,11.905,2.787,16.172
			c-0.135,0.369-0.27,0.646-0.416,0.901c-0.011,0.018-0.022,0.035-0.033,0.053c-2.179,3.011-4.646,4.552-7.011,4.361
			c-1.875-0.154-3.755-1.446-5.281-3.779c2.168-4.311,3.817-9.604,4.919-15.811c1.078-6.062,1.518-11.385,1.272-15.395
			c-0.245-4.022-1.165-6.671-2.733-7.873c-1.072-0.821-2.399-0.958-3.641-0.375c-1.91,0.897-3.527,3.446-4.805,7.573
			c-1.29,4.164-2.097,9.611-2.335,15.752c-0.246,6.33,0.717,11.905,2.787,16.171c-2.579,4.382-5.366,6.509-7.474,7.54
			c-1.111,0.543-2.034,0.783-2.637,0.888c-2.855,0.494-4.89-0.57-5.572-1.766c-0.203-0.357-0.373-0.721-0.513-1.091
			c2.545-1.272,8.449-4.868,9.618-11.313c0.587-3.238,0.06-5.485-1.569-6.679c-1.882-1.38-4.564-0.911-7,1.227
			c-1.496,1.312-3.529,4.311-4.701,8.05c-0.972,3.102-1.637,7.662,0.71,11.778c1.395,2.445,4.332,3.889,7.66,3.892
			c0.668,0.001,1.354-0.058,2.045-0.176c0.782-0.136,1.672-0.365,2.634-0.74c2.479-0.966,5.44-2.899,8.292-6.693
			c0.294-0.391,0.583-0.796,0.863-1.213c2.004,2.389,4.459,3.781,7.136,4c3.56,0.292,7.302-1.736,10.217-5.395
			c0.205,0.169,0.362,0.32,0.526,0.479c1.887,1.979,4.118,3.141,6.533,3.338c3.034,0.249,6.01-1.059,8.63-3.714
			c0.856,0.535,1.793,0.909,2.794,1.098c0.483,0.091,0.978,0.138,1.47,0.137c2.493,0.002,4.969-1.162,6.971-3.278
			c1.766-1.865,3.052-4.383,3.678-7.137c0.161-0.003,0.328-0.013,0.493-0.019c0.247,0.015,0.492,0.036,0.743,0.041
			c2.795,0.06,5.789-0.473,8.816-1.598c6.764-2.514,13.335-7.74,19.529-15.535C156.681,28.135,156.239,27.108,155.38,26.425z
			 M60.052,50.921c0.885-2.825,2.479-5.329,3.528-6.25c0.916-0.803,1.648-1.03,1.922-1.03c0.043,0,0.075,0.006,0.094,0.016
			c0.042,0.061,0.398,0.661,0.016,2.767c-0.697,3.844-3.995,6.427-6.224,7.767C59.488,52.998,59.753,51.873,60.052,50.921z
			 M78.475,47.971c-0.882-2.99-1.353-6.714-1.182-11.11c0.287-7.398,1.35-12.15,2.192-14.833c0.942-3.002,1.901-4.37,2.401-4.849
			c0.734,1.238,2.028,6.375-0.243,19.15C80.807,41.039,79.708,44.865,78.475,47.971z M95.75,46.393
			c-0.881-2.991-1.352-6.715-1.181-11.11c0.286-7.399,1.35-12.15,2.192-14.833c0.941-3.002,1.901-4.37,2.401-4.849
			c0.733,1.239,2.027,6.375-0.243,19.149C98.083,39.46,96.984,43.287,95.75,46.393z M115.771,52.544
			c-0.247,0-0.495-0.023-0.737-0.069c-3.223-0.607-5.184-5.169-4.282-9.961c0.317-1.687,0.965-3.23,1.812-4.492
			c0.142,1.392,0.919,3.131,3.212,5.003c0,0,2.178,2.009,6.617,2.785C121.318,49.663,118.552,52.546,115.771,52.544z
			 M116.906,36.305c0,0,0.286-1.538,1.845-1.407c2.303,0.685,3.876,3.438,4.082,6.771C120.878,41.271,116.939,40.009,116.906,36.305
			z"/>
	</g>
</g>
</svg>
