<?xml version="1.0" encoding="utf-8"?>
<!-- Generator: Adobe Illustrator 15.0.0, SVG Export Plug-In . SVG Version: 6.00 Build 0)  -->
<!DOCTYPE svg PUBLIC "-//W3C//DTD SVG 1.0//EN" "http://www.w3.org/TR/2001/REC-SVG-20010904/DTD/svg10.dtd">
<svg version="1.0" id="Layer_1" xmlns="http://www.w3.org/2000/svg" xmlns:xlink="http://www.w3.org/1999/xlink" x="0px" y="0px"
	 width="15px" height="15px" viewBox="0 0 15 15" enable-background="new 0 0 15 15" xml:space="preserve">
<path fill="#A72423" d="M5.13,4.172c0,0-0.059-0.014-0.131,0.088C4.537,4.906,3.985,5.671,3.477,6.478
	C3.262,6.819,3,7.216,2.738,7.608c-0.259,0.385-0.486,0.61-0.72,1.042c-0.035,0.064-0.172,0.229-0.21,0.646
	C1.807,9.312,1.802,9.32,1.802,9.335l-0.034,0.7l-0.033,3.568c0,0-0.033,1.15,0.217,1.267c0,0,0.15,0.269,0.751,0.034
	c0,0,3.9-1.868,4.635-2.235c0,0,0.224-0.092,0.472-0.36c0.02-0.015,0.05-0.035,0.061-0.045c1.033-1.505,1.938-3.137,3.046-4.568
	c0.09-0.135,0.166-0.225,0.086-0.261C8.811,6.581,6.941,5.405,5.13,4.172z M11.537,0.969c-0.748-0.425-1.452-0.865-2.131-0.957
	C9.105-0.029,8.754,0.045,8.711,0.056c-0.277,0.058-0.583,0.227-0.783,0.39c-0.325,0.267-1.15,1.271-1.349,1.609
	C6.416,2.337,6.144,2.723,6.274,3.013c0.149,0.33,0.978,0.695,1.291,0.898c0.957,0.624,1.771,1.011,2.769,1.536
	c0.447,0.238,1.195,0.674,1.623,0.494c0.247-0.103,0.501-0.641,0.684-0.971c0.264-0.479,0.524-0.998,0.594-1.479
	C13.458,1.896,12.486,1.507,11.537,0.969z"/>
</svg>
