<?xml version="1.0" encoding="utf-8"?>
<!-- Generator: Adobe Illustrator 15.0.0, SVG Export Plug-In . SVG Version: 6.00 Build 0)  -->
<!DOCTYPE svg PUBLIC "-//W3C//DTD SVG 1.0//EN" "http://www.w3.org/TR/2001/REC-SVG-20010904/DTD/svg10.dtd">
<svg version="1.0" id="Layer_1" xmlns="http://www.w3.org/2000/svg" xmlns:xlink="http://www.w3.org/1999/xlink" x="0px" y="0px"
	 width="15px" height="15px" viewBox="0 0 15 15" enable-background="new 0 0 15 15" xml:space="preserve">
<g id="WedYqX_1_">
	<g>
		<path fill="#B62026" d="M12.814,8.521c1.357-0.297,2.487,0.375,2.109,1.93c-0.105,0.447-0.568,1.066-0.943,1.602
			c-0.393,0.557-0.645,1.262-1.057,1.455c-1.002,0.473-1.881-0.611-1.527-1.783c-1.021,0.521-2.285,1.518-3.313,2.256
			c-0.497,0.359-0.981,0.785-1.638,0.875c-1.016,0.143-1.7-0.465-1.71-1.348c-0.011-0.84,0.513-1.236,0.874-1.783
			c-0.634,0.377-1.487,0.979-2.512,0.801c-0.556-0.096-1.076-0.609-1.128-1.271c-0.082-1.021,0.669-1.869,1.166-2.477
			c1.669-2.042,3.973-4.052,5.787-5.858C7.07,3.672,5.37,4.794,3.824,5.938C3.296,6.329,2.75,6.684,2.295,7.103
			C1.987,7.387,1.715,7.899,1.35,8.049c-0.9,0.366-1.583-0.382-1.275-1.311c0.277-0.834,1.499-1.657,2.257-2.257
			C3.991,3.17,5.799,1.946,7.901,1.024c0.466-0.206,1.017-0.449,1.638-0.619c0.578-0.158,1.314-0.351,1.966-0.255
			c0.828,0.122,1.479,1.085,1.056,2.075c-0.229,0.534-0.766,1.075-1.201,1.528c-1.326,1.381-2.883,2.781-4.186,4.041
			c-0.008,0.03-0.038,0.037-0.037,0.073c1.056-0.632,2.441-1.592,3.858-2.111c0.825-0.303,2.055-0.624,2.657,0.072
			C14.484,6.79,13.426,8.041,12.814,8.521z"/>
	</g>
</g>
</svg>
