<?xml version="1.0" encoding="utf-8"?>
<!-- Generator: Adobe Illustrator 15.0.0, SVG Export Plug-In . SVG Version: 6.00 Build 0)  -->
<!DOCTYPE svg PUBLIC "-//W3C//DTD SVG 1.0//EN" "http://www.w3.org/TR/2001/REC-SVG-20010904/DTD/svg10.dtd">
<svg version="1.0" id="Layer_1" xmlns="http://www.w3.org/2000/svg" xmlns:xlink="http://www.w3.org/1999/xlink" x="0px" y="0px"
	 width="15px" height="15px" viewBox="0 0 15 15" enable-background="new 0 0 15 15" xml:space="preserve">
<g id="mFywfk_1_">
	<g>
		<path fill="#B62026" d="M6.855,0.037c2.042-0.207,3.112,0.478,4.099,1.661c0.708,0.85,1.317,2.019,1.213,3.4
			c-0.089,1.175-0.833,2.065-1.456,2.591C10.232,8.091,9.682,8.49,9.042,8.896C8.779,9.062,8.51,9.406,8.396,9.596
			c-0.143,0.237-0.125,0.537-0.203,0.771c-0.16,0.479-0.526,0.963-1.213,0.972c-1.634,0.018-1.697-2.479-1.013-3.685
			c0.458-0.81,1.492-1.362,2.348-1.902c0.526-0.333,1.078-0.727,0.892-1.62c-0.197-0.937-1.91-1.874-3.078-1.012
			c-0.503,0.372-0.581,1.1-0.688,1.902c-0.12,0.898-0.285,1.525-0.932,1.66c-1.445,0.301-1.865-1.55-1.623-3.02
			C3.22,1.644,4.679,0.257,6.855,0.037z"/>
		<path fill="#B62026" d="M7.222,11.986c1.045-0.043,2.004,0.932,1.54,2.104c-0.406,1.021-2.303,1.339-2.917,0.121
			C5.306,13.143,6.077,12.035,7.222,11.986z"/>
	</g>
</g>
</svg>
