<?xml version="1.0" encoding="utf-8"?>
<!-- Generator: Adobe Illustrator 15.0.0, SVG Export Plug-In . SVG Version: 6.00 Build 0)  -->
<!DOCTYPE svg PUBLIC "-//W3C//DTD SVG 1.0//EN" "http://www.w3.org/TR/2001/REC-SVG-20010904/DTD/svg10.dtd">
<svg version="1.0" id="Layer_1" xmlns="http://www.w3.org/2000/svg" xmlns:xlink="http://www.w3.org/1999/xlink" x="0px" y="0px"
	 width="15px" height="15px" viewBox="0 0 15 15" enable-background="new 0 0 15 15" xml:space="preserve">
<g id="_x37_jwiaj_1_">
	<g>
		<path fill="#B62026" d="M9.371,0.656c2.48,0.371,3.842,1.964,4.716,3.61c0.646,1.217,1.16,2.765,0.788,4.886
			c-0.139,0.791-0.555,1.69-1.012,2.262c-0.727,0.911-1.956,1.705-3.196,2.246c-1.287,0.562-2.779,0.902-4.409,0.74
			c-1.806-0.182-3.144-0.658-4.259-1.568c-1.014-0.827-1.76-2.039-1.928-3.412c-0.252-2.054,0.19-4.237,1-5.439
			C1.54,3.283,2.054,2.737,2.65,2.224c0.907-0.78,2.06-1.379,3.582-1.557C7.099,0.566,8.248,0.487,9.371,0.656z M5.406,3.559
			C5.022,3.736,4.569,4.058,4.246,4.42C3.435,5.328,2.609,6.93,2.591,8.573c-0.03,2.702,3.543,3.849,6.171,3.103
			c1.288-0.365,2.934-1.218,3.459-2.382c0.705-1.571,0.018-3.417-0.595-4.379c-0.461-0.725-1.255-1.425-1.938-1.66
			C9.283,3.115,8.337,3.079,7.93,3.079C6.938,3.077,6.017,3.273,5.406,3.559z"/>
		<path fill="#B62026" d="M8.02,4.195C8.029,4.197,8.062,4.2,8.064,4.2c1.527,0.164,2.582,1.003,2.972,1.928
			c0.397,0.949,0.136,2.292-0.496,3.119c-0.86,1.124-3.272,1.92-4.73,0.973C4.628,9.454,3.823,7.023,4.779,5.41
			C5.289,4.549,6.474,4.042,8.02,4.195z"/>
	</g>
</g>
</svg>
