<?xml version="1.0" encoding="utf-8"?>
<!-- Generator: Adobe Illustrator 15.0.0, SVG Export Plug-In . SVG Version: 6.00 Build 0)  -->
<!DOCTYPE svg PUBLIC "-//W3C//DTD SVG 1.0//EN" "http://www.w3.org/TR/2001/REC-SVG-20010904/DTD/svg10.dtd">
<svg version="1.0" id="Layer_1" xmlns="http://www.w3.org/2000/svg" xmlns:xlink="http://www.w3.org/1999/xlink" x="0px" y="0px"
	 width="40px" height="40px" viewBox="0 0 40 40" enable-background="new 0 0 40 40" xml:space="preserve">
<g>
	<circle fill="#A62324" cx="20" cy="20" r="20"/>
	<path fill="#FFFFFF" d="M33.447,17.266c-0.18-0.872-0.445-1.73-0.793-2.551c-0.34-0.804-0.762-1.581-1.252-2.307
		c-0.486-0.719-1.043-1.394-1.656-2.008c-0.615-0.613-1.289-1.171-2.008-1.656c-0.728-0.491-1.502-0.912-2.307-1.252
		c-0.82-0.346-1.681-0.613-2.554-0.791c-0.896-0.183-1.813-0.276-2.733-0.276c-0.921,0-1.84,0.093-2.734,0.276
		c-0.873,0.178-1.731,0.445-2.552,0.791c-0.805,0.34-1.581,0.762-2.307,1.252c-0.719,0.485-1.395,1.042-2.009,1.656
		c-0.613,0.615-1.17,1.29-1.656,2.008c-0.49,0.726-0.912,1.502-1.252,2.307c-0.347,0.821-0.613,1.679-0.791,2.551
		C6.662,18.16,6.569,19.081,6.569,20c0,0.92,0.093,1.84,0.276,2.732c0.178,0.873,0.444,1.73,0.791,2.553
		c0.34,0.804,0.762,1.581,1.252,2.307c0.486,0.719,1.043,1.395,1.656,2.008c0.614,0.612,1.29,1.172,2.009,1.658
		c0.726,0.487,1.502,0.911,2.307,1.251c0.82,0.347,1.679,0.613,2.552,0.791c0.895,0.185,1.813,0.276,2.734,0.276
		c0.918,0,1.838-0.094,2.733-0.276c0.873-0.178,1.732-0.444,2.553-0.791c0.805-0.34,1.58-0.764,2.307-1.251
		c0.72-0.486,1.394-1.046,2.009-1.658c0.612-0.613,1.17-1.289,1.655-2.008c0.49-0.726,0.912-1.503,1.252-2.307
		c0.349-0.821,0.613-1.68,0.794-2.553c0.182-0.894,0.274-1.812,0.274-2.732C33.723,19.081,33.629,18.16,33.447,17.266z
		 M31.742,19.886c0,0.003,0.002,0.03,0.004,0.073l-0.006-0.001v-0.074L31.742,19.886z M28.52,13.332
		c0.267-0.287,0.438-0.502,0.521-0.614c0.039-0.052,0.06-0.079,0.062-0.083c0.075,0.092,0.147,0.187,0.221,0.282
		c1.494,1.931,2.391,4.344,2.416,6.967c-0.119-0.026-2.166-0.466-4.781-0.53c-1.037-0.026-2.162,0.008-3.293,0.151
		c-0.082-0.199-0.166-0.399-0.25-0.599c-0.242-0.567-0.502-1.128-0.771-1.682C25.795,15.936,27.656,14.261,28.52,13.332z M17.416,9
		c0.123,0,0.247-0.194,0.373-0.22c0.76-0.157,1.549-0.307,2.357-0.307c2.936,0,5.614,1.06,7.657,2.859
		c-0.008,0.015-0.193,0.279-0.594,0.709c-0.816,0.878-2.525,2.365-5.461,3.465c-1.195-2.193-2.459-3.988-3.315-5.219
		C17.868,9.473,17.483,9,17.414,9C17.414,9,17.415,9,17.416,9z M15.199,9.514c0.056,0.074,0.371,0.502,0.848,1.188
		c0.84,1.208,2.177,3.217,3.457,5.493c-2.92,0.776-5.638,1.13-7.606,1.288c-1.784,0.144-2.953,0.13-3.098,0.127
		C9.552,14.02,11.964,11.042,15.199,9.514z M11.247,27.747C9.4,25.693,8,22.979,8,20c0-0.007,0,0.459,0,0.459l0,0l0.287-0.53
		l0.138-0.175c0.02,0,0.15-0.059,0.256-0.058c0.588,0.005,2.497-0.035,4.979-0.324c1.985-0.229,4.375-0.654,6.787-1.375
		c0.333,0.65,0.661,1.303,0.952,1.962c-0.154,0.044-0.303,0.084-0.453,0.134c-0.834,0.27-1.61,0.604-2.333,0.979
		c-4.71,2.443-7.232,6.672-7.232,6.672S11.245,27.747,11.247,27.747z M24.666,30.676l-0.004,0.006
		c-1.389,0.586-2.914,0.912-4.516,0.912c-2.571,0-4.945-0.839-6.868-2.254c-0.085-0.062-0.169-0.127-0.252-0.189
		c0.038-0.08,0.085-0.176,0.132-0.278c0.574-1.041,3.043-4.913,8.961-6.976c0.025-0.008,0.051-0.017,0.076-0.024
		c1.629,4.235,2.303,7.782,2.477,8.801L24.666,30.676z M26.672,29.583l-0.041,0.022l-0.008,0.006
		c-0.119-0.711-0.738-4.106-2.256-8.277c3.627-0.58,6.783,0.365,7.195,0.495l0.028,0.017C31.078,25.055,29.248,27.824,26.672,29.583
		z"/>
</g>
</svg>
