<?xml version="1.0" encoding="utf-8"?>
<!-- Generator: Adobe Illustrator 15.0.0, SVG Export Plug-In . SVG Version: 6.00 Build 0)  -->
<!DOCTYPE svg PUBLIC "-//W3C//DTD SVG 1.0//EN" "http://www.w3.org/TR/2001/REC-SVG-20010904/DTD/svg10.dtd">
<svg version="1.0" id="Layer_1" xmlns="http://www.w3.org/2000/svg" xmlns:xlink="http://www.w3.org/1999/xlink" x="0px" y="0px"
	 width="40px" height="40px" viewBox="0 0 40 40" enable-background="new 0 0 40 40" xml:space="preserve">
<g>
	<circle fill="#B62026" cx="20" cy="20.001" r="20"/>
	<path fill="#FFFFFF" d="M33.45,14.4c-2.86,0.083-6.314-2.161-7.653-3.006c-0.124-0.079-0.148-0.151-0.277-0.216
		c-0.141-0.079-0.285-0.15-0.431-0.222v8.258h-0.004c0.005,0.739-0.315,1.519-0.778,2.267l-0.039,0.065
		c-1.338,2.162-4.151,3.425-6.792,2.532c-2.562-0.867-3.248-3.35-1.891-5.544l0.041-0.066c1.337-2.162,4.151-3.422,6.791-2.531
		c0.202,0.069,0.392,0.15,0.569,0.239v-5.973c-0.945-0.255-1.947-0.401-3.003-0.401c-6.11,0-10.646,4.571-10.646,10.205v0.072
		c0,5.634,4.499,10.133,10.571,10.133c6.107,0,10.645-4.571,10.645-10.205v-0.074c0-0.439-0.029-0.869-0.082-1.292
		C33.652,17.811,34.964,14.519,33.45,14.4z"/>
</g>
</svg>
