<?xml version="1.0" encoding="utf-8"?>
<!-- Generator: Adobe Illustrator 15.0.0, SVG Export Plug-In . SVG Version: 6.00 Build 0)  -->
<!DOCTYPE svg PUBLIC "-//W3C//DTD SVG 1.0//EN" "http://www.w3.org/TR/2001/REC-SVG-20010904/DTD/svg10.dtd">
<svg version="1.0" id="Layer_1" xmlns="http://www.w3.org/2000/svg" xmlns:xlink="http://www.w3.org/1999/xlink" x="0px" y="0px"
	 width="40px" height="40px" viewBox="0 0 40 40" enable-background="new 0 0 40 40" xml:space="preserve">
<g>
	<circle fill="#A62324" cx="20" cy="20.001" r="20"/>
	<path fill="#FFFFFF" d="M33.35,12.679c-0.91,0.404-1.889,0.677-2.914,0.8c1.047-0.628,1.853-1.624,2.23-2.809
		c-0.98,0.583-2.066,1.005-3.223,1.233c-0.928-0.988-2.246-1.604-3.707-1.604c-2.803,0-5.076,2.273-5.076,5.076
		c0,0.398,0.045,0.785,0.131,1.157c-4.219-0.211-7.96-2.233-10.464-5.304C9.891,11.979,9.64,12.85,9.64,13.78
		c0,1.762,0.896,3.315,2.259,4.226c-0.832-0.026-1.615-0.254-2.299-0.634c0,0.02,0,0.042,0,0.063c0,2.46,1.75,4.51,4.073,4.977
		c-0.426,0.117-0.875,0.179-1.337,0.179c-0.328,0-0.646-0.032-0.956-0.092c0.646,2.019,2.521,3.485,4.743,3.526
		c-1.738,1.359-3.927,2.173-6.306,2.173c-0.409,0-0.813-0.024-1.21-0.07c2.246,1.438,4.915,2.28,7.782,2.28
		c9.337,0,14.445-7.736,14.445-14.444c0-0.219-0.006-0.438-0.016-0.656C31.809,14.592,32.67,13.698,33.35,12.679z"/>
</g>
</svg>
