<?xml version="1.0" encoding="utf-8"?>
<!-- Generator: Adobe Illustrator 15.0.0, SVG Export Plug-In . SVG Version: 6.00 Build 0)  -->
<!DOCTYPE svg PUBLIC "-//W3C//DTD SVG 1.0//EN" "http://www.w3.org/TR/2001/REC-SVG-20010904/DTD/svg10.dtd">
<svg version="1.0" id="Layer_1" xmlns="http://www.w3.org/2000/svg" xmlns:xlink="http://www.w3.org/1999/xlink" x="0px" y="0px"
	 width="40px" height="40px" viewBox="0 0 40 40" enable-background="new 0 0 40 40" xml:space="preserve">
<g>
	<circle fill="#A92425" cx="20" cy="20" r="20"/>
</g>
<path fill-rule="evenodd" clip-rule="evenodd" fill="#FFFFFF" stroke="#FFFFFF" stroke-miterlimit="10" d="M28.729,26.838
	c-0.811,0.504-1.236,0.795-2.119,0.883c-4.539,0.453-5.636-4.252-9.97-4.27c2.688-3.242,5.325-5.836,8.29-9.248
	c1.275-1.469,2.876-3.026,2.563-5.552C24.245,9,18.663,9.701,15.928,8.122c-0.536,0.959-1.714,1.897-1.59,3.179
	c0.215,2.208,4.275,1.485,6.621,1.413c0.05,0.396-0.479,0.908-0.882,1.412c-1.848,2.314-3.993,4.669-6.078,6.974
	c-0.781,0.865-1.758,1.394-2.265,2.629l0,0c0,0-0.409,0.627-0.621,1.639c-0.018,0.078-0.173,0.992-0.054,1.441
	c0,0,0.034,0.229,0.229,0.201c2.733-0.331,5.538,0.351,7.459,1.595c1.772,1.147,3.321,3.114,5.83,3.266
	C27.201,32.029,29.242,30.017,28.729,26.838z"/>
</svg>
