<?xml version="1.0" encoding="iso-8859-1"?>
<!-- Generator: Adobe Illustrator 15.0.0, SVG Export Plug-In . SVG Version: 6.00 Build 0)  -->
<!DOCTYPE svg PUBLIC "-//W3C//DTD SVG 1.1 Tiny//EN" "http://www.w3.org/Graphics/SVG/1.1/DTD/svg11-tiny.dtd">
<svg version="1.1" baseProfile="tiny" id="Layer_1" xmlns="http://www.w3.org/2000/svg" xmlns:xlink="http://www.w3.org/1999/xlink"
	 x="0px" y="0px" width="15px" height="15px" viewBox="0 0 15 15" overflow="inherit" xml:space="preserve">
<g id="mFywfk_1_">
	<g>
		<path fill-rule="evenodd" fill="#A72423" d="M6.855,0.037c2.042-0.207,3.112,0.478,4.099,1.661c0.708,0.85,1.318,2.019,1.213,3.4
			c-0.089,1.175-0.833,2.065-1.456,2.591C10.233,8.091,9.682,8.49,9.042,8.896C8.78,9.063,8.51,9.406,8.396,9.596
			c-0.142,0.237-0.124,0.537-0.202,0.77c-0.161,0.479-0.527,0.963-1.214,0.972C5.346,11.355,5.283,8.86,5.967,7.653
			c0.458-0.81,1.492-1.362,2.348-1.902c0.526-0.333,1.078-0.727,0.891-1.62C9.009,3.194,7.296,2.257,6.128,3.119
			c-0.503,0.372-0.581,1.1-0.688,1.902c-0.12,0.898-0.285,1.525-0.932,1.66C3.063,6.982,2.643,5.131,2.885,3.661
			C3.22,1.644,4.679,0.257,6.855,0.037z"/>
		<path fill-rule="evenodd" fill="#A72423" d="M7.222,11.986c1.045-0.043,2.004,0.932,1.539,2.105
			c-0.405,1.021-2.302,1.338-2.916,0.121C5.306,13.143,6.077,12.035,7.222,11.986z"/>
	</g>
</g>
</svg>
