<?xml version="1.0" encoding="iso-8859-1"?>
<!-- Generator: Adobe Illustrator 15.0.0, SVG Export Plug-In . SVG Version: 6.00 Build 0)  -->
<!DOCTYPE svg PUBLIC "-//W3C//DTD SVG 1.1 Tiny//EN" "http://www.w3.org/Graphics/SVG/1.1/DTD/svg11-tiny.dtd">
<svg version="1.1" baseProfile="tiny" id="Layer_1" xmlns="http://www.w3.org/2000/svg" xmlns:xlink="http://www.w3.org/1999/xlink"
	 x="0px" y="0px" width="15px" height="15px" viewBox="0 0 15 15" overflow="inherit" xml:space="preserve">
<g id="Go561x_1_">
	<g>
		<path fill-rule="evenodd" fill="#A72423" d="M9.113,9.004c-0.472,0.787-1.281,1.49-2.284,1.714
			c-1.416,0.315-2.631-0.335-3.079-1.206c-0.72-1.398,0.112-3.508,1.048-4.443c0.362-0.363,1.04-0.839,1.682-0.92
			C7.556,4.012,8.217,4.425,8.796,4.91c0.709-0.279,1.263,0.184,1.27,0.952c0.002,0.221,0.003,0.483,0.016,0.729
			c0.019,0.347,0.092,0.625,0.207,0.857c0.129,0.262,0.239,0.538,0.539,0.604c0.612,0.033,0.476-1.179,0.476-1.841
			c0-1.552-0.54-2.673-1.452-3.282c-0.887-0.59-2.223-0.805-3.192-0.562C5.653,2.62,5.072,3.07,4.432,3.604
			C3.746,4.175,3.284,4.816,2.829,5.586c-0.5,0.849-0.846,1.734-0.762,2.984c0.028,0.418,0.16,0.869,0.317,1.205
			c0.438,0.938,1.219,1.672,2.127,2.222c0.952,0.577,2.097,0.699,3.587,0.597c1.603-0.109,2.831-0.74,3.897-1.507
			c0.598-0.431,1.044-0.862,1.548-1.467c0.193-0.233,0.387-0.454,0.774-0.407c0.896,0.108,0.767,0.908,0.412,1.505
			c-0.171,0.289-0.364,0.565-0.539,0.762c-0.505,0.565-0.833,0.894-1.333,1.27c-0.996,0.749-2.248,1.352-3.522,1.683
			c-1.458,0.377-3.298,0.295-4.569-0.127c-1.368-0.455-2.372-1.197-3.175-2.032c-0.875-0.91-1.522-2.112-1.587-3.649
			c-0.07-1.677,0.535-3.077,1.143-4.062C1.88,3.374,2.576,2.585,3.624,1.832c1.001-0.72,2.285-1.4,3.84-1.492
			c2.409-0.142,4.447,0.97,5.251,2.639c0.952,1.971,0.962,5.982-0.923,6.873c0.016-0.008-0.95,0.461-1.766,0
			C9.666,9.646,9.456,9.443,9.113,9.004z M5.497,7.195C5.043,8.102,5.112,9.172,6.385,8.973c0.7-0.11,1.316-0.852,1.586-1.46
			c0.126-0.286,0.506-1.424-0.476-1.714C7.282,5.736,6.306,5.573,5.497,7.195z"/>
	</g>
</g>
</svg>
