<?xml version="1.0" encoding="utf-8"?>
<!-- Generator: Adobe Illustrator 15.0.0, SVG Export Plug-In . SVG Version: 6.00 Build 0)  -->
<!DOCTYPE svg PUBLIC "-//W3C//DTD SVG 1.0//EN" "http://www.w3.org/TR/2001/REC-SVG-20010904/DTD/svg10.dtd">
<svg version="1.0" id="Layer_1" xmlns="http://www.w3.org/2000/svg" xmlns:xlink="http://www.w3.org/1999/xlink" x="0px" y="0px"
	 width="15px" height="15px" viewBox="0 0 15 15" enable-background="new 0 0 15 15" xml:space="preserve">
<g id="Go561x_1_">
	<g>
		<path fill="#A72423" d="M9.113,9.004c-0.473,0.787-1.281,1.49-2.284,1.714c-1.416,0.315-2.631-0.335-3.079-1.206
			C3.03,8.114,3.862,6.004,4.798,5.069C5.16,4.706,5.838,4.23,6.48,4.149C7.556,4.012,8.217,4.425,8.796,4.91
			c0.709-0.279,1.263,0.184,1.271,0.952c0.002,0.221,0.002,0.483,0.016,0.729c0.02,0.347,0.092,0.625,0.207,0.857
			c0.129,0.262,0.238,0.538,0.539,0.604c0.611,0.033,0.477-1.179,0.477-1.841c0-1.552-0.541-2.673-1.453-3.282
			C8.965,2.339,7.629,2.124,6.66,2.367C5.653,2.62,5.072,3.07,4.432,3.604C3.746,4.175,3.284,4.816,2.829,5.586
			C2.329,6.435,1.983,7.32,2.067,8.57c0.028,0.418,0.16,0.869,0.317,1.205c0.438,0.938,1.219,1.672,2.127,2.222
			c0.952,0.577,2.097,0.698,3.586,0.597c1.604-0.109,2.832-0.74,3.897-1.507c0.598-0.431,1.044-0.862,1.548-1.467
			c0.193-0.233,0.387-0.454,0.773-0.407c0.896,0.107,0.768,0.908,0.412,1.505c-0.17,0.289-0.363,0.565-0.539,0.763
			c-0.504,0.564-0.832,0.894-1.332,1.27c-0.996,0.749-2.248,1.352-3.522,1.684c-1.458,0.377-3.298,0.295-4.569-0.127
			c-1.368-0.455-2.372-1.197-3.175-2.033c-0.875-0.909-1.522-2.111-1.587-3.648c-0.07-1.677,0.535-3.077,1.143-4.062
			C1.88,3.374,2.576,2.585,3.624,1.832c1.001-0.72,2.285-1.4,3.84-1.492c2.409-0.142,4.447,0.97,5.251,2.639
			c0.952,1.971,0.962,5.982-0.923,6.873c0.017-0.008-0.95,0.461-1.767,0C9.666,9.646,9.456,9.443,9.113,9.004z M5.497,7.195
			C5.043,8.102,5.112,9.172,6.385,8.973c0.7-0.109,1.316-0.852,1.586-1.459c0.126-0.286,0.505-1.424-0.476-1.714
			C7.282,5.736,6.306,5.573,5.497,7.195z"/>
	</g>
</g>
</svg>
