<?xml version="1.0" encoding="utf-8"?>
<!-- Generator: Adobe Illustrator 15.0.0, SVG Export Plug-In . SVG Version: 6.00 Build 0)  -->
<!DOCTYPE svg PUBLIC "-//W3C//DTD SVG 1.0//EN" "http://www.w3.org/TR/2001/REC-SVG-20010904/DTD/svg10.dtd">
<svg version="1.0" id="Layer_1" xmlns="http://www.w3.org/2000/svg" xmlns:xlink="http://www.w3.org/1999/xlink" x="0px" y="0px"
	 width="15px" height="15px" viewBox="0 0 15 15" enable-background="new 0 0 15 15" xml:space="preserve">
<g id="YpptSa_1_">
	<g>
		<path fill="#A72423" d="M11.346,6.375c2.092,0.199,3.65,1.811,3.654,4.077c0.004,2.266-1.936,3.78-3.957,3.928
			c-1.557,0.113-2.83-0.295-3.685-1.269c-0.812,0.621-1.596,1.179-2.839,1.269c-2.319,0.17-4.332-0.952-4.501-3.142
			C-0.184,8.617,1.37,6.853,3.552,6.436C3.208,5.707,2.965,4.73,3.279,3.747c0.405-1.264,1.312-2.322,2.478-2.84
			C7.3,0.222,9.506,0.771,10.529,1.784C11.534,2.778,12.132,4.67,11.346,6.375z M6.21,2.811c-0.861,0.593-1.492,2.035-0.665,2.93
			C6.31,6.567,8.172,6.992,9.109,6.193c0.55-0.467,0.754-1.58,0.483-2.265c-0.327-0.826-1.331-1.54-2.175-1.479
			C6.875,2.486,6.517,2.6,6.21,2.811z M2.525,9.003c-0.408,0.498-0.653,1.313-0.544,2.056c0.298,2.028,3.921,1.416,4.411,0.028
			c0.262-0.744-0.105-1.743-0.483-2.146C5.43,8.436,4.646,8.223,3.794,8.307C3.291,8.357,2.763,8.712,2.525,9.003z M9.049,9.003
			c-0.408,0.498-0.652,1.313-0.543,2.056c0.299,2.028,3.921,1.416,4.41,0.028c0.264-0.744-0.105-1.743-0.484-2.146
			c-0.479-0.506-1.262-0.719-2.113-0.635C9.816,8.357,9.287,8.712,9.049,9.003z"/>
	</g>
</g>
</svg>
