<?xml version="1.0" encoding="iso-8859-1"?>
<!-- Generator: Adobe Illustrator 15.0.0, SVG Export Plug-In . SVG Version: 6.00 Build 0)  -->
<!DOCTYPE svg PUBLIC "-//W3C//DTD SVG 1.1 Tiny//EN" "http://www.w3.org/Graphics/SVG/1.1/DTD/svg11-tiny.dtd">
<svg version="1.1" baseProfile="tiny" id="Layer_1" xmlns="http://www.w3.org/2000/svg" xmlns:xlink="http://www.w3.org/1999/xlink"
	 x="0px" y="0px" width="15px" height="15px" viewBox="0 0 15 15" overflow="inherit" xml:space="preserve">
<g id="WedYqX_1_">
	<g>
		<path fill-rule="evenodd" fill="#A72423" d="M12.815,8.521c1.358-0.297,2.488,0.375,2.11,1.93
			c-0.107,0.448-0.57,1.067-0.945,1.602c-0.391,0.556-0.643,1.262-1.055,1.455c-1.002,0.472-1.881-0.612-1.529-1.783
			c-1.021,0.52-2.285,1.516-3.313,2.256c-0.497,0.359-0.981,0.785-1.638,0.875c-1.016,0.141-1.7-0.466-1.71-1.348
			c-0.011-0.84,0.513-1.236,0.874-1.783c-0.634,0.376-1.487,0.977-2.512,0.801c-0.556-0.096-1.076-0.611-1.128-1.273
			c-0.082-1.021,0.669-1.869,1.166-2.475c1.669-2.042,3.973-4.054,5.787-5.86C7.07,3.672,5.37,4.794,3.824,5.938
			C3.296,6.329,2.75,6.684,2.295,7.103C1.987,7.387,1.715,7.899,1.35,8.049C0.45,8.415-0.233,7.667,0.075,6.738
			c0.277-0.834,1.499-1.657,2.257-2.257C3.991,3.17,5.799,1.946,7.901,1.024c0.466-0.206,1.017-0.449,1.638-0.619
			c0.578-0.158,1.315-0.351,1.966-0.255c0.828,0.122,1.479,1.085,1.056,2.075c-0.229,0.534-0.766,1.075-1.201,1.528
			c-1.328,1.381-2.883,2.781-4.186,4.041C7.166,7.824,7.136,7.831,7.137,7.867c1.057-0.632,2.441-1.592,3.858-2.111
			c0.825-0.303,2.055-0.624,2.658,0.072C14.484,6.79,13.426,8.041,12.815,8.521z"/>
	</g>
</g>
</svg>
